<svg width="129" height="41" viewBox="0 0 129 41" fill="none" xmlns="http://www.w3.org/2000/svg"><path d="M14.04 40.41C6.3 40.41 0 34.11 0 26.37c0-7.74 6.3-14.04 14.04-14.04 7.74 0 14.04 6.3 14.04 14.04 0 7.74-6.3 14.04-14.04 14.04Zm0-23.32c-5.12 0-9.28 4.16-9.28 9.28 0 5.12 4.16 9.28 9.28 9.28 5.12 0 9.27-4.16 9.27-9.28 0-5.12-4.16-9.28-9.27-9.28Z" fill="#FBD503"/><path d="M28.64 5.53 30.66 0H18.95c-1.62 0-3.2 1.31-3.5 2.9l-4.78 25.16h3.38c1.62 0 3.2-1.31 3.5-2.9l1.56-8.32h5.42l1.94-5.32h-6.32l1.12-5.99h7.38-.01Z" fill="#111"/><path d="M14.04 40.41C6.3 40.41 0 34.11 0 26.37c0-7.74 6.3-14.04 14.04-14.04 7.74 0 14.04 6.3 14.04 14.04 0 7.74-6.3 14.04-14.04 14.04Zm0-23.32c-5.12 0-9.28 4.16-9.28 9.28 0 5.12 4.16 9.28 9.28 9.28 5.12 0 9.27-4.16 9.27-9.28 0-5.12-4.16-9.28-9.27-9.28Z" fill="#FBD503"/><path d="M28.64 5.53 30.66 0H18.95c-1.62 0-3.2 1.31-3.5 2.9l-4.78 25.16h3.38c1.62 0 3.2-1.31 3.5-2.9l1.56-8.32h5.42l1.94-5.32h-6.32l1.12-5.99h7.38-.01Zm8.96 11.41h6.03l-.64 1.78h-4.82v2.62h4.44l-.65 1.8h-3.79v4.05c0 .41-.33.74-.74.74h-1.31v-9.52c0-.81.66-1.47 1.47-1.47h.01Zm8.13-.08h.08c.56 0 1.01.45 1.01 1.01s-.45 1.01-1.01 1.01h-.08c-.56 0-1.01-.45-1.01-1.01s.45-1.01 1.01-1.01Zm-.93 3.16h1.92v7.92H44.8v-7.92Zm7.26-.12c2.59 0 3.84 1.95 3.84 3.86 0 .32-.03.7-.03.7h-5.78c.17 1.27.96 1.98 2.12 1.98.88 0 1.56-.4 1.74-1.1h1.91c-.26 1.72-1.74 2.72-3.69 2.72-2.61 0-3.97-2.01-3.97-4.09s1.27-4.07 3.86-4.07Zm1.77 3.11c-.08-.95-.69-1.65-1.77-1.65-.99 0-1.66.59-1.91 1.65h3.68Zm4.07 2.43v-3.81h-1.34v-1.6h1.34v-1.6c0-.41.33-.74.74-.74h1.19v2.33h1.85l-.44 1.6h-1.41v3.62c0 .75.46 1.16 1.1 1.16.29 0 .59-.06.75-.11v1.66c-.18.05-.55.11-.98.11-1.63 0-2.79-.85-2.79-2.62h-.01Zm4.59-.25h1.88c.05.59.67 1.24 1.62 1.24.76 0 1.3-.34 1.3-.82 0-.41-.32-.66-.85-.76l-1.24-.26c-1.22-.26-2.33-.85-2.33-2.41 0-1.24 1.13-2.27 2.96-2.27 1.72 0 3.07.95 3.26 2.52h-1.88c-.09-.64-.75-.98-1.39-.98-.64 0-1.05.27-1.05.73 0 .38.34.61.85.72l1.24.26c1.34.27 2.38.79 2.38 2.41 0 1.37-1.3 2.5-3.25 2.5s-3.42-1.17-3.49-2.87l-.01-.01Zm11.67-5.29c2.59 0 3.84 1.95 3.84 3.86 0 .32-.03.7-.03.7h-5.78c.17 1.27.96 1.98 2.12 1.98.88 0 1.56-.4 1.74-1.1h1.91c-.26 1.72-1.74 2.72-3.69 2.72-2.61 0-3.97-2.01-3.97-4.09s1.27-4.07 3.86-4.07Zm1.77 3.11c-.08-.95-.69-1.65-1.77-1.65-.99 0-1.66.59-1.91 1.65h3.68Zm7.66-1.33c-1.11 0-2.15.96-2.15 3.34v2.91h-1.92v-7.18c0-.41.33-.74.74-.74h1.19v1.45c.35-.9 1.42-1.57 2.38-1.57.27 0 .44.03.53.05v1.83c-.17-.03-.44-.09-.76-.09h-.01Zm1.23 3.51h1.88c.05.59.67 1.24 1.62 1.24.76 0 1.3-.34 1.3-.82 0-.41-.32-.66-.85-.76l-1.24-.26c-1.22-.26-2.33-.85-2.33-2.41 0-1.24 1.13-2.27 2.96-2.27 1.72 0 3.07.95 3.26 2.52h-1.88c-.09-.64-.75-.98-1.39-.98-.64 0-1.05.27-1.05.73 0 .38.34.61.85.72l1.24.26c1.34.27 2.38.79 2.38 2.41 0 1.37-1.3 2.5-3.25 2.5s-3.42-1.17-3.49-2.87l-.01-.01Zm17.25-1.22c0-2.35 1.69-4.07 4.04-4.07s4.04 1.72 4.04 4.07c0 2.35-1.71 4.09-4.04 4.09s-4.04-1.72-4.04-4.09Zm6.13 0c0-1.43-.87-2.41-2.09-2.41-1.22 0-2.07.99-2.07 2.41 0 1.42.81 2.43 2.07 2.43 1.26 0 2.09-.99 2.09-2.43Zm4.19-3.95h1.19v1.22c.52-.81 1.42-1.34 2.53-1.34 1.71 0 2.87 1.13 2.87 2.85v5.19h-1.91V23.2c0-.88-.72-1.61-1.6-1.58-1.21.04-1.9 1.1-1.9 2.85v3.48h-1.92v-7.18c0-.41.33-.74.74-.74v-.01Zm14.12-2.47v3.38c-.65-.65-1.33-1.03-2.12-1.03-2.35 0-4.04 1.72-4.04 4.07 0 2.35 1.69 4.09 4.04 4.09 2.62 0 4.04-1.68 4.04-4.09v-7.15h-1.19c-.41 0-.74.33-.74.74l.01-.01Zm-2.12 8.85c-1.27 0-2.07-.99-2.07-2.43 0-1.44.81-2.41 2.07-2.41 1.26 0 2.09.98 2.09 2.41 0 1.43-.85 2.43-2.09 2.43Zm-27.3-6.5c-.79 0-1.47.39-2.12 1.03v-4.11h-1.19c-.41 0-.74.33-.74.74v6.42c0 2.41 1.42 4.09 4.04 4.09 2.35 0 4.04-1.72 4.04-4.09s-1.69-4.07-4.04-4.07l.01-.01Zm0 6.5c-1.24 0-2.09-.99-2.09-2.43 0-1.44.87-2.41 2.09-2.41 1.22 0 2.07.99 2.07 2.41 0 1.42-.81 2.43-2.07 2.43Z" fill="#111"/></svg>
